<svg width="731" height="335" viewBox="0 0 731 335" fill="none" xmlns="http://www.w3.org/2000/svg">
<path d="M46.6963 94.8359V242H11.2192V94.8359H46.6963ZM134.53 94.8359L77.5239 169.429L44.1694 205.917L37.7007 173.371L59.0273 141.027L90.7646 94.8359H134.53ZM92.584 242L54.5801 175.695L82.1733 155.379L134.53 242H92.584ZM230.829 125.765L194.948 242H156.843L210.918 94.8359H235.074L230.829 125.765ZM260.545 242L224.563 125.765L219.913 94.8359H244.373L298.751 242H260.545ZM259.13 187.117V214.508H183.628V187.117H259.13ZM452.562 163.364V223.807C450.069 226.569 446.228 229.534 441.039 232.701C435.918 235.801 429.45 238.462 421.633 240.686C413.817 242.91 404.619 244.021 394.04 244.021C384.269 244.021 375.409 242.472 367.457 239.372C359.506 236.205 352.667 231.589 346.939 225.525C341.279 219.393 336.899 211.914 333.8 203.086C330.767 194.192 329.251 184.017 329.251 172.562V164.375C329.251 152.92 330.801 142.745 333.901 133.851C337 124.956 341.346 117.477 346.939 111.412C352.599 105.28 359.237 100.631 366.851 97.4639C374.533 94.2969 382.955 92.7134 392.119 92.7134C405.663 92.7134 416.68 94.8696 425.171 99.1821C433.661 103.427 440.096 109.323 444.476 116.87C448.856 124.35 451.517 133.008 452.461 142.846H418.399C417.725 137.995 416.445 133.884 414.558 130.515C412.739 127.079 410.111 124.484 406.674 122.732C403.238 120.913 398.79 120.003 393.332 120.003C389.087 120.003 385.213 120.913 381.709 122.732C378.272 124.552 375.341 127.314 372.915 131.021C370.49 134.659 368.603 139.241 367.255 144.767C365.975 150.292 365.335 156.761 365.335 164.173V172.562C365.335 179.907 365.941 186.342 367.154 191.867C368.434 197.393 370.321 202.008 372.814 205.714C375.375 209.353 378.609 212.116 382.517 214.002C386.493 215.822 391.176 216.731 396.567 216.731C400.34 216.731 403.575 216.428 406.27 215.822C408.965 215.148 411.189 214.339 412.941 213.396C414.76 212.385 416.141 211.442 417.085 210.566V187.723H392.423V163.364H452.562ZM622.645 165.487V171.45C622.645 182.703 621.062 192.811 617.895 201.772C614.795 210.667 610.382 218.281 604.654 224.615C598.927 230.882 592.155 235.7 584.338 239.069C576.522 242.371 567.897 244.021 558.463 244.021C548.962 244.021 540.27 242.371 532.386 239.069C524.57 235.7 517.764 230.882 511.969 224.615C506.242 218.281 501.794 210.667 498.627 201.772C495.528 192.811 493.978 182.703 493.978 171.45V165.487C493.978 154.234 495.528 144.126 498.627 135.165C501.794 126.203 506.208 118.588 511.868 112.322C517.596 105.988 524.368 101.17 532.184 97.8682C540.068 94.499 548.76 92.8145 558.261 92.8145C567.695 92.8145 576.32 94.499 584.136 97.8682C592.02 101.17 598.826 105.988 604.553 112.322C610.281 118.588 614.728 126.203 617.895 135.165C621.062 144.126 622.645 154.234 622.645 165.487ZM586.663 171.45V165.285C586.663 158.007 586.023 151.606 584.743 146.081C583.53 140.488 581.71 135.805 579.285 132.031C576.859 128.258 573.86 125.428 570.289 123.541C566.785 121.587 562.776 120.61 558.261 120.61C553.544 120.61 549.434 121.587 545.93 123.541C542.426 125.428 539.495 128.258 537.137 132.031C534.778 135.805 532.993 140.488 531.78 146.081C530.634 151.606 530.061 158.007 530.061 165.285V171.45C530.061 178.66 530.634 185.062 531.78 190.654C532.993 196.18 534.778 200.863 537.137 204.704C539.562 208.544 542.527 211.442 546.031 213.396C549.603 215.35 553.747 216.327 558.463 216.327C562.978 216.327 566.987 215.35 570.491 213.396C573.995 211.442 576.926 208.544 579.285 204.704C581.71 200.863 583.53 196.18 584.743 190.654C586.023 185.062 586.663 178.66 586.663 171.45Z" fill="white"/>
<path fill-rule="evenodd" clip-rule="evenodd" d="M29 18H713V317H29V294.033H11V317V335H29H713H731V317V18V0H713H29H11V18V41.627H29V18Z" fill="white"/>
</svg>
